<mxfile host="app.diagrams.net" modified="2023-08-14T09:08:09.665Z" agent="Mozilla/5.0 (Windows NT 10.0; Win64; x64; rv:109.0) Gecko/20100101 Firefox/116.0" version="21.6.3" etag="CNnTk764JXgn_uWQPp-7" type="github">
  <diagram name="第 1 页" id="nwnW5eL0SsdfpGa8sib5">
    <mxGraphModel>
      <root>
        <mxCell id="0" />
        <mxCell id="1" parent="0" />
      </root>
    </mxGraphModel>
  </diagram>
</mxfile>
